<?xml version="1.0" standalone="no"?>
<!DOCTYPE svg PUBLIC "-//W3C//DTD SVG 20010904//EN"
 "http://www.w3.org/TR/2001/REC-SVG-20010904/DTD/svg10.dtd">
<svg version="1.0" xmlns="http://www.w3.org/2000/svg"
 width="500.000000pt" height="500.000000pt" viewBox="0 0 500.000000 500.000000"
 preserveAspectRatio="xMidYMid meet">

<g transform="translate(0.000000,500.000000) scale(0.100000,-0.100000)"
fill="#000000" stroke="none">
<path d="M1600 3491 l0 -1138 -71 -23 c-319 -103 -570 -369 -661 -700 -20 -75
-23 -106 -22 -265 0 -166 3 -187 27 -268 153 -499 630 -797 1138 -711 313 53
585 255 728 541 41 83 91 235 91 279 0 12 4 26 10 29 5 3 233 -85 507 -196
274 -111 503 -204 510 -206 10 -4 13 27 13 144 l0 149 -217 83 c-411 158 -524
203 -518 209 3 3 168 69 368 147 l362 142 3 151 3 151 -68 -28 c-168 -71 -963
-391 -971 -391 -5 0 -17 28 -26 62 -37 133 -123 287 -222 397 -116 130 -331
260 -490 297 l-74 18 0 208 0 208 320 0 320 0 0 185 0 185 -320 0 -320 0 0
185 0 185 305 0 305 0 0 185 0 185 -305 0 -305 0 0 185 0 185 320 0 320 0 0
185 0 185 -530 0 -530 0 0 -1139z m465 -1351 c310 -98 519 -343 566 -662 50
-342 -146 -692 -469 -835 -196 -86 -458 -84 -658 7 -214 97 -377 296 -440 535
-29 111 -25 295 10 408 32 107 69 183 130 263 112 150 278 255 471 300 91 21
301 12 390 -16z"/>
<path d="M1509 1790 c-47 -25 -86 -71 -99 -118 -14 -51 -13 -545 1 -597 7 -25
27 -56 54 -82 63 -60 96 -64 449 -61 251 3 298 5 306 18 5 8 10 63 10 122 0
146 16 138 -272 138 l-228 0 -16 25 c-13 20 -15 47 -12 150 4 176 -14 165 277
165 163 0 230 3 239 12 16 16 16 220 0 236 -9 9 -98 12 -342 12 -306 -1 -334
-2 -367 -20z"/>
<path d="M2810 3705 l0 -925 530 0 530 0 0 185 0 185 -320 0 -320 0 0 740 0
740 -210 0 -210 0 0 -925z"/>
</g>
</svg>
